<?xml version="1.0" encoding="UTF-8" standalone="no"?>
<!DOCTYPE svg PUBLIC "-//W3C//DTD SVG 1.1//EN" "http://www.w3.org/Graphics/SVG/1.1/DTD/svg11.dtd">
<svg xmlns="http://www.w3.org/2000/svg" version="1.1" viewBox="0 0 668 373">
<path fill="#ccfe06" d="
  M 388.06 0.00
  L 447.56 0.00
  Q 453.87 0.72 456.48 6.04
  Q 463.65 20.69 471.88 40.91
  Q 489.30 83.68 506.92 127.76
  A 1.33 1.32 77.9 0 0 508.21 128.60
  Q 522.43 128.03 537.01 127.55
  Q 549.99 127.13 556.99 127.78
  C 608.35 132.55 648.21 170.75 662.69 219.30
  Q 663.15 220.83 663.57 224.02
  C 666.46 245.74 666.19 271.19 657.25 291.61
  Q 646.71 315.66 628.50 334.12
  C 602.46 360.53 563.58 373.18 527.13 367.80
  C 501.13 363.96 476.83 351.21 458.15 332.96
  C 435.65 310.98 418.28 266.16 423.04 234.52
  C 426.16 213.75 433.72 193.34 446.80 176.81
  C 456.11 165.04 468.98 150.41 482.69 144.45
  C 490.28 141.15 471.54 100.40 467.12 95.33
  A 1.36 1.35 -45.4 0 0 465.07 95.35
  Q 450.72 112.28 436.70 129.95
  Q 385.52 194.48 334.40 259.05
  A 1.45 1.43 -25.6 0 0 334.09 259.91
  L 333.46 314.77
  A 0.73 0.72 84.5 0 1 332.89 315.47
  C 325.91 317.03 316.13 318.79 308.49 317.04
  C 303.52 315.90 300.71 308.16 306.90 306.90
  Q 313.33 305.60 320.55 306.12
  A 1.16 1.15 -86.9 0 0 321.79 305.00
  Q 322.52 283.04 321.85 260.60
  A 0.52 0.51 89.4 0 0 321.34 260.09
  C 296.07 259.92 270.07 258.94 244.92 261.00
  A 0.81 0.80 -0.5 0 0 244.18 261.74
  Q 241.44 293.12 221.68 317.42
  C 198.87 345.47 170.64 365.90 132.89 367.97
  C 123.19 368.51 113.39 369.23 103.73 367.81
  Q 97.19 366.84 82.40 361.67
  C 24.17 341.28 -10.32 277.60 5.07 218.08
  Q 11.56 193.01 27.63 172.50
  C 38.15 159.07 54.14 147.96 68.92 139.67
  C 73.78 136.95 78.92 134.76 84.50 133.22
  C 114.85 124.88 143.02 127.44 173.36 135.95
  A 0.71 0.70 -64.9 0 0 174.14 135.66
  L 219.05 66.90
  A 0.90 0.88 -43.2 0 0 219.09 65.99
  L 205.03 39.43
  A 0.77 0.77 0.0 0 0 204.25 39.03
  Q 198.34 39.79 192.49 40.45
  C 183.95 41.40 185.10 29.78 185.10 23.28
  Q 185.09 18.95 187.59 16.76
  A 1.57 1.56 21.1 0 1 188.48 16.37
  Q 200.00 15.12 211.50 15.02
  Q 240.76 14.78 269.98 16.15
  C 274.30 16.35 280.48 16.86 283.17 20.74
  C 288.86 28.95 263.81 32.31 260.22 32.78
  Q 243.69 34.98 227.14 37.69
  A 0.86 0.86 0.0 0 0 226.51 38.92
  L 235.57 57.23
  A 0.82 0.82 0.0 0 0 236.29 57.69
  Q 333.64 58.11 430.96 56.84
  C 437.58 56.76 444.42 56.28 451.09 55.96
  A 1.10 1.09 -10.4 0 0 452.08 54.53
  Q 447.34 40.12 440.64 26.83
  C 438.97 23.51 432.92 23.31 429.43 23.14
  C 416.72 22.55 404.13 23.12 391.35 22.12
  C 384.44 21.58 380.88 20.06 377.22 14.52
  Q 375.25 11.53 376.18 8.48
  Q 378.77 0.02 388.06 0.00
  Z
  M 322.23 178.71
  A 0.46 0.45 76.3 0 1 322.62 178.06
  C 327.89 177.85 350.39 175.01 351.19 182.89
  C 351.99 190.78 338.46 190.99 333.96 190.81
  A 0.46 0.46 0.0 0 0 333.48 191.27
  L 333.49 219.99
  Q 333.49 220.92 334.09 220.20
  Q 366.24 181.75 408.77 127.54
  Q 427.65 103.47 438.45 88.19
  Q 439.43 86.80 440.57 84.41
  A 0.52 0.52 0.0 0 0 440.34 83.72
  Q 437.62 82.26 433.74 82.07
  Q 413.98 81.11 408.75 81.11
  Q 330.38 81.00 251.99 81.00
  A 0.31 0.30 -13.0 0 0 251.71 81.44
  L 323.09 221.28
  A 0.27 0.27 0.0 0 0 323.60 221.15
  Q 322.87 200.33 322.51 179.45
  C 322.50 179.13 322.37 178.99 322.23 178.71
  Z
  M 244.38 233.18
  C 265.05 233.65 285.72 233.91 306.35 234.01
  A 0.48 0.48 0.0 0 0 306.78 233.32
  Q 297.42 214.34 287.02 195.96
  Q 263.45 154.28 239.99 112.53
  Q 234.76 103.22 228.53 94.98
  A 0.67 0.66 -48.0 0 0 227.43 95.04
  L 195.15 148.30
  A 0.66 0.65 -51.2 0 0 195.23 149.09
  C 218.22 173.66 236.00 199.69 243.77 232.69
  A 0.64 0.63 -5.8 0 0 244.38 233.18
  Z
  M 452.06 281.93
  C 466.01 318.07 499.68 343.07 538.20 345.71
  C 568.86 347.82 599.83 333.91 619.10 310.15
  C 633.63 292.25 645.47 273.89 643.75 249.86
  C 643.11 240.89 643.45 229.63 640.28 221.23
  C 628.69 190.51 599.17 156.49 565.49 152.51
  Q 554.82 151.24 532.86 150.35
  C 528.22 150.16 524.57 150.77 520.80 152.87
  A 1.76 1.75 -23.4 0 0 519.98 154.93
  C 527.62 179.02 536.50 203.06 547.12 225.96
  C 550.68 233.65 555.04 245.27 551.70 253.65
  C 549.65 258.78 544.36 261.26 539.75 257.58
  C 533.29 252.43 528.98 240.07 525.56 231.89
  Q 513.50 203.13 501.70 174.27
  C 497.52 164.06 493.04 162.27 484.48 169.99
  C 470.03 183.01 458.54 195.73 452.44 213.86
  C 444.92 236.18 443.50 259.78 452.06 281.93
  Z
  M 162.29 161.18
  C 123.81 148.13 78.88 154.52 50.10 184.71
  Q 21.38 214.83 27.56 258.84
  C 34.71 309.69 78.14 343.99 129.24 340.13
  C 175.93 336.61 215.35 310.62 219.98 260.53
  A 0.45 0.44 2.9 0 0 219.53 260.04
  C 189.63 259.97 159.56 259.45 129.68 260.19
  C 122.98 260.35 112.56 261.17 107.77 254.92
  A 1.51 1.43 -65.1 0 1 107.47 254.02
  C 107.42 246.98 115.11 235.82 118.93 229.89
  C 133.49 207.27 148.72 184.97 162.56 161.91
  A 0.50 0.50 0.0 0 0 162.29 161.18
  Z
  M 218.53 233.42
  C 216.72 207.15 203.35 188.47 184.04 171.93
  A 0.51 0.51 0.0 0 0 183.28 172.05
  L 144.00 234.52
  A 0.30 0.30 0.0 0 0 144.26 234.98
  L 218.16 233.82
  A 0.38 0.38 0.0 0 0 218.53 233.42
  Z"
/>
</svg>
