<?xml version="1.0" encoding="UTF-8" standalone="no"?>
<!DOCTYPE svg PUBLIC "-//W3C//DTD SVG 1.1//EN" "http://www.w3.org/Graphics/SVG/1.1/DTD/svg11.dtd">
<svg xmlns="http://www.w3.org/2000/svg" version="1.1" viewBox="0 0 512 149">
<path fill="#ffffff" d="
  M 54.90 81.49
  C 66.65 74.72 80.41 72.95 91.56 81.51
  A 0.45 0.44 33.9 0 0 92.21 81.39
  Q 93.47 79.30 95.43 77.44
  C 110.06 63.52 126.16 65.81 142.50 74.69
  Q 144.25 75.64 143.70 77.77
  Q 143.10 80.10 140.96 78.99
  C 136.29 76.57 131.25 73.85 126.32 72.80
  Q 107.55 68.82 95.29 84.15
  A 0.60 0.60 0.0 0 0 95.30 84.92
  C 96.70 86.55 106.30 97.60 100.38 98.50
  A 1.68 1.67 -19.1 0 1 98.66 97.67
  C 95.83 92.72 92.72 87.32 87.99 84.28
  C 77.21 77.36 68.99 80.65 57.88 84.78
  C 55.82 85.54 54.79 86.34 54.27 88.68
  Q 53.04 94.11 48.13 96.75
  C 46.33 97.71 44.68 98.82 43.48 96.48
  Q 42.46 94.49 44.51 93.59
  C 52.23 90.19 50.92 85.05 50.06 77.02
  Q 47.89 56.57 46.00 43.25
  Q 45.60 40.46 45.92 38.42
  A 0.85 0.84 -2.2 0 1 46.56 37.74
  Q 52.79 36.31 57.63 32.09
  A 1.18 1.18 0.0 0 1 59.11 32.02
  C 66.26 37.22 72.32 39.78 78.98 31.33
  Q 80.58 29.31 80.27 26.75
  C 79.76 22.45 76.30 17.59 73.93 13.68
  C 71.20 9.17 67.30 7.49 62.22 8.02
  C 41.87 10.12 30.43 29.24 24.19 47.19
  Q 18.81 62.67 10.02 92.10
  C 8.44 97.37 7.80 102.10 8.56 107.09
  A 3.58 3.56 -73.0 0 0 9.65 109.15
  C 15.60 114.73 21.52 120.28 28.21 124.32
  Q 61.29 144.30 99.81 133.00
  A 1.61 1.59 -35.2 0 1 101.19 133.23
  C 113.45 141.86 130.92 146.17 145.53 141.17
  A 2.19 2.18 -25.5 0 1 148.09 142.07
  Q 149.04 143.58 147.77 144.95
  Q 147.46 145.29 147.02 145.43
  Q 131.45 150.35 116.43 145.32
  Q 109.02 142.83 100.16 137.95
  A 1.25 1.24 51.5 0 0 99.24 137.84
  C 75.92 144.07 49.64 141.95 28.57 129.65
  C 21.14 125.32 12.70 118.37 6.46 112.28
  C -0.93 105.07 8.88 81.16 11.66 72.86
  C 17.00 56.95 19.95 40.91 29.44 26.61
  C 31.78 23.09 34.09 19.14 36.77 16.28
  C 43.97 8.59 56.00 2.56 66.49 3.83
  C 75.49 4.91 82.48 17.58 84.53 25.25
  C 85.43 28.61 84.40 31.46 82.23 34.25
  Q 72.74 46.43 58.87 37.46
  A 0.84 0.83 -41.9 0 0 58.02 37.42
  L 50.60 41.41
  A 0.66 0.64 -18.7 0 0 50.26 42.08
  Q 53.09 61.56 54.36 81.20
  A 0.36 0.36 0.0 0 0 54.90 81.49
  Z"
/>
<path fill="#ffffff" d="
  M 460.3341 39.7904
  A 15.96 15.96 0.0 0 1 444.3463 55.7225
  L 441.4263 55.7174
  A 15.96 15.96 0.0 0 1 425.4942 39.7296
  L 425.5059 33.0296
  A 15.96 15.96 0.0 0 1 441.4937 17.0975
  L 444.4137 17.1026
  A 15.96 15.96 0.0 0 1 460.3458 33.0904
  L 460.3341 39.7904
  Z
  M 442.7687 51.1699
  A 14.71 12.38 90.2 0 0 455.1999 36.5032
  A 14.71 12.38 90.2 0 0 442.8713 21.7501
  A 14.71 12.38 90.2 0 0 430.4401 36.4168
  A 14.71 12.38 90.2 0 0 442.7687 51.1699
  Z"
/>
<path fill="#ffffff" d="
  M 218.58 47.04
  L 226.88 18.01
  A 0.71 0.71 0.0 0 1 227.56 17.50
  L 231.83 17.50
  A 0.46 0.46 0.0 0 1 232.27 18.09
  L 221.83 54.92
  A 0.81 0.80 -81.8 0 1 221.06 55.50
  L 216.30 55.50
  A 0.94 0.94 0.0 0 1 215.40 54.83
  L 207.94 30.23
  Q 207.34 28.22 206.67 30.22
  L 198.46 54.88
  A 0.91 0.89 -80.4 0 1 197.61 55.50
  L 193.12 55.51
  A 0.85 0.84 83.0 0 1 192.30 54.86
  Q 187.64 36.35 181.78 18.17
  A 0.51 0.51 0.0 0 1 182.27 17.50
  L 186.99 17.50
  A 0.70 0.69 -7.7 0 1 187.66 18.01
  L 195.27 46.82
  A 0.55 0.54 -10.4 0 0 195.86 47.22
  C 196.25 47.17 204.08 22.74 204.93 20.22
  A 0.69 0.68 -80.5 0 1 205.58 19.75
  L 208.70 19.75
  A 0.77 0.76 81.2 0 1 209.43 20.29
  L 217.83 47.05
  Q 218.22 48.29 218.58 47.04
  Z"
/>
<path fill="#ffffff" d="
  M 263.94 17.89
  Q 265.68 16.99 267.79 17.62
  A 0.90 0.88 -89.5 0 1 268.40 18.25
  Q 269.56 22.61 271.21 26.80
  Q 276.75 40.85 282.34 54.88
  A 0.45 0.45 0.0 0 1 281.92 55.50
  L 277.09 55.50
  A 0.90 0.90 0.0 0 1 276.24 54.89
  L 273.71 47.51
  A 0.75 0.75 0.0 0 0 273.00 47.00
  L 258.24 47.00
  A 0.77 0.77 0.0 0 0 257.51 47.52
  L 254.98 54.88
  A 0.91 0.91 0.0 0 1 254.12 55.50
  L 250.52 55.50
  A 1.30 1.30 0.0 0 1 249.31 53.72
  L 263.25 18.65
  A 1.52 1.47 88.1 0 1 263.94 17.89
  Z
  M 259.83 41.97
  A 0.33 0.33 0.0 0 0 260.14 42.41
  L 271.10 42.60
  A 0.33 0.33 0.0 0 0 271.42 42.17
  L 266.22 25.98
  A 0.33 0.33 0.0 0 0 265.59 25.97
  L 259.83 41.97
  Z"
/>
<path fill="#ffffff" d="
  M 313.16 39.05
  L 308.77 38.98
  A 0.51 0.50 0.6 0 0 308.25 39.48
  L 308.25 55.00
  A 0.50 0.50 0.0 0 1 307.75 55.50
  L 303.62 55.50
  A 0.65 0.64 89.5 0 1 302.98 54.86
  L 302.96 18.18
  A 0.55 0.55 0.0 0 1 303.49 17.63
  C 311.62 17.20 321.25 16.18 325.39 22.87
  C 329.13 28.91 326.27 35.76 319.57 38.02
  A 0.60 0.59 63.2 0 0 319.28 38.92
  Q 324.66 46.54 328.92 54.81
  A 0.47 0.47 0.0 0 1 328.50 55.50
  L 323.89 55.50
  A 0.87 0.85 74.7 0 1 323.15 55.07
  L 313.91 39.49
  A 0.89 0.88 -14.4 0 0 313.16 39.05
  Z
  M 316.06 33.84
  C 323.67 32.93 323.05 23.11 315.20 22.50
  Q 313.94 22.40 308.74 22.54
  A 0.51 0.50 -1.2 0 0 308.25 23.04
  L 308.25 33.25
  A 0.59 0.58 3.3 0 0 308.77 33.83
  Q 312.44 34.27 316.06 33.84
  Z"
/>
<path fill="#ffffff" d="
  M 355.50 39.42
  L 355.50 54.88
  A 0.63 0.62 -0.0 0 1 354.87 55.50
  L 350.62 55.50
  A 0.63 0.62 90.0 0 1 350.00 54.87
  L 350.00 18.04
  A 0.49 0.49 0.0 0 1 350.48 17.55
  C 359.46 17.34 369.47 16.05 373.07 23.69
  C 375.93 29.76 373.07 35.70 366.89 38.01
  A 0.64 0.63 63.7 0 0 366.58 38.94
  L 376.69 54.98
  Q 377.09 55.62 376.34 55.60
  L 370.88 55.47
  A 0.85 0.85 0.0 0 1 370.17 55.03
  L 361.71 39.58
  A 1.10 1.09 76.7 0 0 360.78 39.00
  L 356.08 38.86
  A 0.56 0.56 0.0 0 0 355.50 39.42
  Z
  M 368.31 29.81
  C 370.14 21.66 361.04 22.32 356.13 22.57
  A 0.46 0.45 -2.0 0 0 355.70 23.02
  L 355.70 33.34
  A 0.56 0.56 0.0 0 0 356.23 33.90
  C 360.69 34.22 367.18 34.86 368.31 29.81
  Z"
/>
<rect fill="#ffffff" x="397.51" y="17.50" width="5.74" height="38.00" rx="0.31"/>
<path fill="#ffffff" d="
  M 493.20 39.09
  L 488.63 38.78
  A 0.59 0.59 0.0 0 0 488.00 39.37
  L 488.00 54.87
  A 0.63 0.62 -90.0 0 1 487.38 55.50
  L 483.48 55.50
  A 0.53 0.53 0.0 0 1 482.95 54.97
  L 482.91 18.17
  A 0.46 0.46 0.0 0 1 483.34 17.71
  C 491.87 17.10 504.22 15.74 506.19 26.02
  C 507.24 31.48 504.87 36.20 499.60 38.12
  A 0.41 0.41 0.0 0 0 499.39 38.71
  L 508.84 54.77
  Q 509.28 55.51 508.42 55.51
  L 504.30 55.50
  A 1.58 1.57 74.4 0 1 502.95 54.73
  L 493.93 39.54
  A 0.95 0.94 -13.2 0 0 493.20 39.09
  Z
  M 501.24 27.31
  C 500.24 21.25 492.93 22.68 488.56 22.33
  A 0.51 0.50 2.1 0 0 488.01 22.83
  L 488.00 33.25
  A 0.65 0.64 2.9 0 0 488.60 33.90
  C 493.06 34.24 502.48 34.89 501.24 27.31
  Z"
/>
<path fill="#ffffff" d="
  M 212.74 120.79
  Q 212.73 119.56 212.01 120.56
  C 206.83 127.80 195.61 127.42 189.53 122.23
  C 177.01 111.57 183.16 85.26 202.46 86.81
  Q 211.91 87.58 216.42 97.09
  A 0.54 0.53 -24.3 0 1 216.14 97.82
  L 212.12 99.49
  A 0.54 0.53 70.5 0 1 211.40 99.14
  C 209.28 91.83 199.82 89.87 194.23 93.65
  C 188.56 97.48 187.96 106.29 189.58 112.49
  C 192.98 125.55 211.47 123.98 211.88 110.46
  A 0.45 0.44 -89.4 0 0 211.44 110.00
  L 204.31 110.00
  A 0.63 0.63 0.0 0 1 203.68 109.37
  L 203.70 105.99
  A 0.50 0.49 -0.0 0 1 204.20 105.50
  L 216.87 105.50
  A 0.63 0.63 0.0 0 1 217.50 106.13
  L 217.50 124.88
  A 0.62 0.62 0.0 0 1 216.88 125.50
  L 213.42 125.50
  A 0.64 0.64 0.0 0 1 212.78 124.87
  L 212.74 120.79
  Z"
/>
<path fill="#ffffff" d="
  M 263.92 87.50
  L 269.30 87.51
  A 0.56 0.56 0.0 0 1 269.77 88.37
  L 255.84 110.61
  A 0.56 0.56 0.0 0 0 255.75 110.91
  L 255.75 124.94
  A 0.56 0.56 0.0 0 1 255.19 125.50
  L 250.56 125.50
  A 0.56 0.56 0.0 0 1 250.00 124.94
  L 250.01 110.12
  A 0.56 0.56 0.0 0 0 249.92 109.82
  L 236.36 88.23
  A 0.56 0.56 0.0 0 1 236.85 87.37
  L 242.49 87.56
  A 0.56 0.56 0.0 0 1 242.96 87.85
  L 252.35 104.78
  A 0.56 0.56 0.0 0 0 253.32 104.79
  L 263.44 87.77
  A 0.56 0.56 0.0 0 1 263.92 87.50
  Z"
/>
<path fill="#ffffff" d="
  M 308.78 115.42
  L 319.10 87.99
  A 0.75 0.74 -79.9 0 1 319.80 87.50
  L 326.74 87.50
  A 0.50 0.50 0.0 0 1 327.24 88.00
  L 327.27 124.87
  A 0.64 0.63 -89.6 0 1 326.63 125.51
  L 322.52 125.48
  A 0.53 0.53 0.0 0 1 322.00 124.95
  L 322.00 95.52
  Q 322.00 94.08 321.49 95.43
  L 311.62 121.47
  A 0.81 0.78 2.0 0 1 311.09 121.95
  Q 308.67 122.61 306.23 121.90
  A 1.00 0.96 86.5 0 1 305.59 121.31
  L 295.76 95.43
  Q 295.25 94.07 295.25 95.53
  L 295.25 124.88
  A 0.63 0.62 -0.0 0 1 294.62 125.50
  L 290.37 125.50
  A 0.63 0.62 -90.0 0 1 289.75 124.87
  L 289.75 88.00
  A 0.50 0.50 0.0 0 1 290.25 87.50
  L 297.35 87.50
  A 0.93 0.93 0.0 0 1 298.22 88.10
  L 308.36 115.42
  Q 308.57 115.98 308.78 115.42
  Z"
/>
<path fill="#ffffff" d="
  M 67.05 122.92
  C 68.89 123.39 69.84 124.27 68.89 126.21
  A 1.97 1.95 17.7 0 1 66.82 127.27
  Q 48.06 124.27 34.84 111.03
  C 33.65 109.84 33.15 108.67 33.72 107.12
  Q 34.68 104.49 36.62 106.51
  Q 44.60 114.84 54.91 119.72
  C 58.62 121.47 62.93 121.87 67.05 122.92
  Z"
/>
<path fill="#ffffff" d="
  M 144.87 125.69
  A 1.24 1.24 0.0 0 1 145.94 126.66
  C 146.43 128.82 145.39 129.66 143.37 129.93
  Q 129.90 131.74 121.15 121.36
  Q 119.94 119.93 121.65 118.54
  A 1.86 1.85 -40.2 0 1 124.20 118.75
  Q 129.65 124.84 137.70 125.71
  C 139.80 125.93 142.41 125.42 144.87 125.69
  Z"
/>
<rect fill="#ffffff" x="-7.74" y="-2.25" transform="translate(80.49,124.90) rotate(-7.5)" width="15.48" height="4.50" rx="2.03"/>
</svg>