<?xml version="1.0" encoding="UTF-8" standalone="no"?>
<!DOCTYPE svg PUBLIC "-//W3C//DTD SVG 1.1//EN" "http://www.w3.org/Graphics/SVG/1.1/DTD/svg11.dtd">
<svg xmlns="http://www.w3.org/2000/svg" version="1.1" viewBox="0 0 630 396">
<path fill="#ccfe06" d="
  M 501.57 35.84
  A 0.26 0.26 0.0 0 0 501.96 36.09
  C 513.08 29.48 530.62 30.73 543.59 31.74
  C 556.21 32.72 565.99 40.79 569.64 52.71
  Q 570.98 57.09 570.99 65.06
  Q 571.01 110.41 571.00 155.83
  A 0.39 0.39 0.0 0 0 571.39 156.23
  Q 583.98 156.27 596.62 156.24
  C 615.30 156.19 628.14 168.66 628.01 187.46
  Q 627.94 197.87 628.04 208.29
  C 628.18 222.60 619.50 233.81 606.11 237.75
  Q 601.85 239.01 594.63 238.99
  Q 583.08 238.97 571.52 239.05
  A 0.51 0.51 0.0 0 0 571.01 239.56
  Q 570.99 286.17 570.99 332.74
  C 570.99 345.05 563.77 356.95 552.13 361.39
  Q 546.64 363.49 535.48 363.72
  C 524.12 363.96 511.92 364.80 502.15 358.98
  A 0.42 0.42 0.0 0 0 501.52 359.35
  C 501.96 379.80 490.64 394.07 469.42 394.01
  C 452.86 393.96 435.47 397.20 424.14 381.58
  Q 418.33 373.57 418.33 362.56
  Q 418.34 301.01 418.64 239.45
  A 0.45 0.45 0.0 0 0 418.19 239.00
  L 211.79 238.99
  A 0.44 0.44 0.0 0 0 211.35 239.43
  Q 211.26 301.06 211.13 362.76
  C 211.09 381.92 197.85 394.12 179.00 394.02
  C 170.17 393.97 158.04 395.33 149.85 392.82
  C 134.25 388.02 127.46 374.74 128.40 359.01
  A 0.29 0.28 75.4 0 0 127.97 358.75
  C 117.27 365.61 101.35 363.55 88.51 363.50
  C 70.27 363.42 58.77 348.53 58.76 331.25
  Q 58.72 285.45 58.78 239.65
  A 0.51 0.51 0.0 0 0 58.28 239.14
  Q 45.68 238.87 33.00 239.08
  C 19.43 239.30 7.17 230.97 3.17 218.20
  Q 1.71 213.54 1.74 203.17
  C 1.76 191.87 -0.30 179.63 6.74 169.49
  Q 12.85 160.68 22.29 157.58
  C 31.43 154.58 47.05 155.99 57.98 156.00
  A 0.85 0.85 0.0 0 0 58.73 155.55
  C 59.45 154.23 58.67 152.89 58.68 151.81
  Q 58.93 112.91 58.83 74.02
  Q 58.79 57.95 59.72 54.07
  C 62.88 40.85 75.11 31.53 88.99 31.42
  C 105.09 31.29 116.49 29.65 127.79 35.97
  A 0.45 0.45 0.0 0 0 128.46 35.60
  C 128.61 32.31 128.19 28.58 128.88 25.51
  Q 133.04 6.99 150.48 2.07
  C 158.60 -0.22 170.27 1.07 179.13 0.97
  C 193.97 0.81 205.75 8.08 209.93 22.45
  Q 211.28 27.08 211.27 35.69
  Q 211.20 95.70 211.29 155.70
  A 0.50 0.50 0.0 0 0 211.80 156.20
  L 418.39 156.08
  A 0.35 0.34 0.0 0 0 418.74 155.74
  Q 418.79 94.79 418.72 33.67
  Q 418.71 26.68 419.97 22.47
  C 424.29 8.11 435.90 0.86 450.71 0.97
  C 459.80 1.04 472.64 -0.46 481.12 2.36
  C 495.53 7.15 502.65 20.82 501.57 35.84
  Z
  M 197.99 30.95
  A 16.70 16.70 0.0 0 0 181.29 14.25
  L 158.69 14.25
  A 16.70 16.70 0.0 0 0 141.99 30.95
  L 141.99 364.03
  A 16.70 16.70 0.0 0 0 158.69 380.73
  L 181.29 380.73
  A 16.70 16.70 0.0 0 0 197.99 364.03
  L 197.99 30.95
  Z
  M 488.02 30.97
  A 16.70 16.70 0.0 0 0 471.32 14.27
  L 448.72 14.27
  A 16.70 16.70 0.0 0 0 432.02 30.97
  L 432.02 364.01
  A 16.70 16.70 0.0 0 0 448.72 380.71
  L 471.32 380.71
  A 16.70 16.70 0.0 0 0 488.02 364.01
  L 488.02 30.97
  Z
  M 128.25 61.41
  A 16.62 16.62 0.0 0 0 111.63 44.79
  L 88.87 44.79
  A 16.62 16.62 0.0 0 0 72.25 61.41
  L 72.25 333.41
  A 16.62 16.62 0.0 0 0 88.87 350.03
  L 111.63 350.03
  A 16.62 16.62 0.0 0 0 128.25 333.41
  L 128.25 61.41
  Z
  M 557.75 61.37
  A 16.39 16.39 0.0 0 0 541.36 44.98
  L 518.14 44.98
  A 16.39 16.39 0.0 0 0 501.75 61.37
  L 501.75 333.61
  A 16.39 16.39 0.0 0 0 518.14 350.00
  L 541.36 350.00
  A 16.39 16.39 0.0 0 0 557.75 333.61
  L 557.75 61.37
  Z
  M 599.15 225.42
  C 607.87 224.85 614.75 217.92 614.93 209.18
  C 615.10 200.91 616.22 185.98 613.36 179.25
  C 610.19 171.78 603.65 169.50 595.59 169.51
  Q 583.63 169.52 571.60 169.46
  A 0.57 0.56 -89.5 0 0 571.03 170.03
  L 571.07 224.86
  A 0.51 0.51 0.0 0 0 571.57 225.37
  Q 593.07 225.82 599.15 225.42
  Z
  M 32.69 169.54
  C 23.11 169.64 15.13 175.93 15.04 186.00
  Q 14.93 198.74 15.10 208.01
  C 15.30 218.82 22.04 225.53 33.25 225.51
  Q 45.84 225.50 58.23 225.49
  A 0.63 0.63 0.0 0 0 58.86 224.85
  Q 58.67 212.82 58.84 200.86
  C 58.96 191.66 58.55 180.65 58.87 170.43
  A 0.86 0.85 -88.7 0 0 58.03 169.54
  Q 45.56 169.39 32.69 169.54
  Z
  M 218.56 204.19
  Q 213.85 204.11 211.85 204.32
  A 0.68 0.67 -3.3 0 0 211.25 204.99
  L 211.25 224.96
  A 0.53 0.53 0.0 0 0 211.78 225.49
  L 418.25 225.50
  A 0.50 0.50 0.0 0 0 418.75 225.00
  L 418.74 170.16
  A 0.41 0.40 90.0 0 0 418.34 169.75
  L 211.78 169.76
  A 0.53 0.53 0.0 0 0 211.25 170.29
  L 211.25 190.47
  A 0.52 0.52 0.0 0 0 211.77 190.99
  Q 244.81 191.00 277.84 191.02
  C 289.06 191.02 289.26 204.02 278.86 204.12
  Q 237.34 204.52 218.56 204.19
  Z"
/>
<rect fill="#ccfe06" x="-18.13" y="-6.55" transform="translate(317.29,197.62) rotate(-0.1)" width="36.26" height="13.10" rx="6.31"/>
</svg>
