<?xml version="1.0" encoding="UTF-8" standalone="no"?>
<!DOCTYPE svg PUBLIC "-//W3C//DTD SVG 1.1//EN" "http://www.w3.org/Graphics/SVG/1.1/DTD/svg11.dtd">
<svg xmlns="http://www.w3.org/2000/svg" version="1.1" viewBox="0 0 533 468">
<path fill="#ccfe05" d="
  M 267.42 66.59
  Q 279.31 54.90 291.13 43.13
  C 343.17 -8.70 424.81 -12.43 481.01 34.23
  C 544.62 87.02 548.13 183.79 489.70 242.20
  Q 381.87 349.98 274.24 457.96
  C 270.13 462.09 266.01 463.69 261.53 459.20
  Q 155.67 353.26 49.76 247.39
  Q 40.24 237.87 36.03 232.84
  C -14.99 171.72 -5.96 82.18 55.73 32.21
  C 108.03 -10.16 183.20 -7.77 234.12 34.79
  C 244.71 43.64 256.06 55.96 266.71 66.59
  A 0.51 0.50 -44.6 0 0 267.42 66.59
  Z
  M 221.39 41.52
  C 188.85 16.29 145.22 8.37 105.75 20.53
  C 12.86 49.17 -13.28 165.61 54.44 233.32
  Q 156.97 335.84 259.49 438.37
  C 261.67 440.55 264.17 443.43 266.61 445.81
  A 0.75 0.74 44.7 0 0 267.66 445.81
  Q 371.65 341.47 475.73 237.37
  Q 485.09 228.01 489.34 222.75
  C 533.59 168.02 526.00 86.62 470.10 42.57
  C 422.79 5.28 356.25 5.46 309.40 44.30
  C 297.81 53.90 285.65 67.23 274.17 78.69
  C 270.13 82.72 266.46 85.22 261.79 80.46
  C 248.96 67.41 235.56 52.50 221.39 41.52
  Z"
/>
<path fill="#ccfe05" d="
  M 422.98 61.89
  C 421.01 57.26 426.03 51.89 430.60 53.21
  Q 432.63 53.79 436.16 56.80
  C 467.51 83.52 483.10 121.84 473.38 162.66
  Q 472.51 166.34 471.33 167.89
  C 466.91 173.71 457.82 168.86 459.73 161.99
  C 470.03 124.90 455.33 89.51 426.47 65.78
  Q 423.65 63.46 422.98 61.89
  Z"
/>
<path fill="#ccfe05" d="
  M 307.81 191.69
  Q 325.66 191.83 343.53 191.73
  Q 355.54 191.66 359.84 193.16
  C 371.44 197.23 372.96 207.22 373.00 219.05
  Q 373.04 231.68 372.98 244.32
  Q 372.94 255.12 371.32 259.35
  C 367.93 268.20 360.26 271.97 351.00 271.99
  Q 329.36 272.02 307.67 271.99
  A 0.41 0.40 90.0 0 0 307.27 272.40
  Q 307.22 292.08 307.27 311.82
  C 307.30 323.14 305.38 332.18 294.30 336.22
  Q 290.19 337.72 280.87 337.74
  Q 268.28 337.76 255.68 337.75
  Q 243.82 337.75 239.54 336.13
  C 230.50 332.71 226.95 324.82 226.98 315.40
  Q 227.03 293.94 226.99 272.41
  A 0.40 0.40 0.0 0 0 226.59 272.01
  Q 205.18 271.98 183.69 272.01
  C 174.19 272.02 166.27 268.49 162.84 259.34
  Q 161.26 255.13 161.26 244.34
  Q 161.25 229.67 161.29 215.00
  C 161.31 205.23 164.39 196.86 173.95 193.20
  Q 177.79 191.73 186.72 191.74
  Q 206.50 191.76 226.32 191.74
  A 0.67 0.67 0.0 0 0 226.99 191.07
  Q 227.02 169.59 226.99 148.01
  C 226.97 138.57 230.76 130.85 239.87 127.49
  Q 243.87 126.01 252.96 126.01
  Q 266.23 126.00 279.50 125.99
  Q 290.07 125.99 294.30 127.52
  C 305.02 131.41 307.30 140.34 307.26 151.26
  Q 307.19 171.23 307.31 191.19
  A 0.50 0.50 0.0 0 0 307.81 191.69
  Z
  M 232.36 258.76
  C 235.82 258.77 240.07 260.98 240.05 264.75
  Q 239.86 290.87 240.14 316.98
  C 240.19 321.98 243.07 324.00 247.98 324.00
  Q 267.86 324.01 287.74 323.99
  C 292.62 323.98 294.02 320.19 294.01 315.82
  Q 293.97 291.22 294.02 266.63
  C 294.04 260.51 297.60 258.74 303.39 258.74
  Q 327.72 258.77 352.03 258.73
  C 357.69 258.72 359.31 255.52 359.29 250.17
  Q 359.22 230.98 359.24 211.81
  C 359.24 206.88 355.94 204.99 351.26 205.00
  Q 326.60 205.01 301.93 204.99
  C 296.76 204.98 294.02 202.39 294.01 197.00
  Q 294.00 172.15 293.99 147.29
  C 293.99 141.45 290.78 139.52 285.13 139.52
  Q 267.96 139.49 250.78 139.49
  C 244.76 139.50 240.03 140.29 240.02 147.25
  Q 239.99 172.39 240.00 197.52
  C 240.00 203.45 236.52 204.99 230.98 205.00
  Q 207.06 205.00 183.15 205.00
  C 178.51 205.00 174.76 206.80 174.76 211.76
  Q 174.73 231.75 174.77 251.75
  C 174.77 257.19 178.50 258.76 183.51 258.75
  Q 207.94 258.73 232.36 258.76
  Z"
/>
<rect fill="#ccfe05" x="-6.61" y="-15.77" transform="translate(449.59,198.67) rotate(33.2)" width="13.22" height="31.54" rx="6.39"/>
</svg>
