<?xml version="1.0" encoding="UTF-8" standalone="no"?>
<!DOCTYPE svg PUBLIC "-//W3C//DTD SVG 1.1//EN" "http://www.w3.org/Graphics/SVG/1.1/DTD/svg11.dtd">
<svg xmlns="http://www.w3.org/2000/svg" version="1.1" viewBox="0 0 538 464">
<path fill="#ccfe06" d="
  M 409.06 0.00
  L 411.81 0.00
  Q 418.68 0.89 422.23 4.26
  Q 441.55 22.61 459.20 42.55
  C 473.64 58.86 482.35 74.49 494.90 97.08
  Q 510.63 125.38 526.39 153.68
  C 532.70 165.02 536.62 171.12 537.25 181.48
  Q 538.77 206.38 521.08 223.36
  C 509.04 234.93 497.42 243.29 481.41 252.53
  C 456.30 267.04 430.14 279.75 404.78 293.84
  Q 265.72 371.11 126.73 448.51
  C 108.79 458.51 87.18 463.25 66.15 460.63
  C 49.77 458.58 35.69 451.46 24.42 439.21
  C 0.71 413.46 -8.42 370.00 15.53 341.17
  Q 19.08 336.90 29.94 327.34
  Q 49.69 309.95 69.35 292.47
  C 118.42 248.85 156.14 197.52 181.73 137.01
  C 186.94 124.68 191.68 110.06 197.50 96.87
  Q 209.44 69.78 221.47 42.73
  C 226.37 31.72 236.08 27.47 247.52 30.26
  Q 271.92 36.21 283.03 58.55
  C 285.98 64.48 287.96 72.34 290.03 79.18
  A 1.51 1.51 0.0 0 0 291.13 80.22
  C 332.97 90.32 375.03 68.59 388.72 27.48
  C 390.19 23.07 390.78 15.84 392.92 11.33
  Q 397.49 1.69 409.06 0.00
  Z
  M 411.34 13.28
  C 408.56 12.61 404.60 14.66 404.05 18.06
  C 400.18 41.96 388.03 61.04 369.24 76.08
  A 1.19 1.18 73.9 0 0 368.80 76.89
  Q 368.69 77.95 368.86 79.43
  C 374.80 130.75 402.02 177.70 453.29 194.58
  A 1.12 1.11 39.6 0 0 454.19 194.50
  L 514.75 160.86
  A 0.55 0.55 0.0 0 0 514.97 160.10
  Q 493.81 121.85 472.29 83.90
  Q 463.90 69.10 457.95 61.30
  C 446.80 46.67 430.71 31.13 416.40 16.77
  Q 413.42 13.78 411.34 13.28
  Z
  M 255.62 47.09
  C 249.11 43.29 237.34 38.42 233.37 47.45
  Q 228.49 58.55 223.52 70.03
  Q 223.24 70.68 223.93 70.54
  C 240.62 67.16 258.08 69.61 274.33 74.46
  A 0.45 0.45 0.0 0 0 274.89 73.91
  C 271.91 62.67 265.84 53.04 255.62 47.09
  Z
  M 259.37 125.80
  C 256.32 133.15 246.61 131.60 246.53 124.80
  Q 246.51 122.72 248.44 118.04
  Q 255.18 101.71 261.63 85.21
  A 0.44 0.43 17.7 0 0 261.33 84.63
  C 247.74 81.21 223.13 77.80 213.95 91.83
  C 211.28 95.91 206.46 107.57 204.58 113.07
  Q 178.37 190.10 126.29 252.65
  A 0.30 0.30 0.0 0 0 126.50 253.14
  Q 131.42 253.59 136.24 253.82
  C 195.70 256.60 212.79 204.02 231.31 159.98
  C 235.29 150.50 246.84 156.19 243.84 163.82
  Q 238.37 177.71 225.37 206.15
  C 204.68 251.42 168.12 275.06 116.91 264.49
  A 1.50 1.50 0.0 0 0 115.48 264.96
  C 91.74 291.47 64.05 314.26 37.38 337.78
  Q 27.52 346.48 24.45 350.55
  C 10.97 368.49 12.63 392.15 21.69 411.66
  A 0.64 0.64 0.0 0 0 22.40 412.02
  C 45.31 407.78 67.87 400.23 89.52 391.58
  Q 141.80 370.68 183.96 346.72
  Q 310.77 274.67 438.14 203.72
  A 0.34 0.33 42.6 0 0 438.11 203.12
  C 389.89 181.03 363.18 136.35 356.29 85.05
  A 0.35 0.35 0.0 0 0 355.78 84.79
  C 329.70 98.22 302.65 98.95 275.40 88.23
  A 0.72 0.71 21.4 0 0 274.47 88.63
  Q 267.08 107.24 259.37 125.80
  Z
  M 29.36 424.44
  C 50.10 454.70 92.47 452.29 120.90 436.46
  Q 256.31 361.06 391.86 285.89
  Q 423.34 268.43 455.22 251.70
  C 474.64 241.51 491.44 232.38 505.41 219.76
  Q 513.91 212.09 516.58 208.70
  C 524.63 198.50 526.92 184.59 521.72 172.63
  A 0.60 0.60 0.0 0 0 520.88 172.35
  Q 357.56 262.81 196.91 354.03
  C 165.49 371.86 133.10 387.59 99.71 401.39
  C 77.22 410.69 53.51 419.09 29.60 423.85
  A 0.38 0.38 0.0 0 0 29.36 424.44
  Z"
/>
</svg>
