<?xml version="1.0" encoding="UTF-8" standalone="no"?>
<!DOCTYPE svg PUBLIC "-//W3C//DTD SVG 1.1//EN" "http://www.w3.org/Graphics/SVG/1.1/DTD/svg11.dtd">
<svg xmlns="http://www.w3.org/2000/svg" version="1.1" viewBox="0 0 304 303">
<path fill="#ffffff" d="
  M 39.33 242.17
  C 54.34 255.61 74.83 264.79 93.94 270.52
  Q 146.85 286.39 199.65 270.04
  Q 201.75 269.39 203.56 270.63
  Q 224.67 285.15 250.53 290.17
  Q 271.73 294.28 294.79 287.29
  C 299.58 285.84 302.71 293.93 296.26 296.08
  C 264.26 306.70 228.17 297.68 200.95 279.38
  A 1.11 1.08 -34.7 0 0 200.05 279.23
  Q 124.03 300.65 55.03 263.75
  C 46.19 259.02 39.05 253.50 30.38 245.86
  C 23.11 239.46 15.36 233.85 8.53 226.95
  C 3.41 221.77 4.00 213.17 3.97 206.18
  C 3.92 193.87 8.10 180.21 12.19 168.23
  Q 25.08 130.48 28.50 119.00
  Q 34.66 98.36 36.73 92.25
  C 50.28 52.42 76.31 9.63 122.30 4.36
  Q 139.57 2.37 150.83 15.39
  C 159.08 24.93 170.78 43.00 169.47 56.06
  C 168.18 68.86 153.36 80.09 141.38 81.35
  C 132.27 82.30 123.55 78.76 116.36 73.24
  A 0.78 0.77 -43.1 0 0 115.45 73.22
  Q 107.80 78.47 99.00 81.36
  A 0.67 0.67 0.0 0 0 98.54 82.08
  L 108.11 164.31
  A 0.40 0.39 -18.9 0 0 108.71 164.60
  C 132.32 150.18 160.60 146.77 183.65 164.48
  A 0.50 0.49 -51.9 0 0 184.35 164.39
  C 211.46 129.17 252.98 129.24 288.37 151.18
  C 293.58 154.41 289.38 161.43 283.85 158.44
  C 273.51 152.85 264.08 148.45 252.93 146.14
  C 228.27 141.05 205.46 150.10 190.71 170.66
  A 0.40 0.39 41.7 0 0 190.74 171.14
  Q 199.33 180.62 205.19 191.89
  C 208.21 197.70 200.84 201.94 197.54 195.79
  C 177.71 158.85 144.39 151.36 109.67 174.44
  C 107.28 176.03 108.33 177.34 107.50 179.56
  Q 102.95 191.81 91.12 197.01
  C 85.28 199.58 81.90 192.26 87.80 189.00
  C 95.47 184.75 100.55 179.52 99.61 170.02
  Q 95.11 124.43 89.25 78.91
  Q 88.80 75.40 92.15 74.29
  C 101.19 71.28 107.35 68.66 114.87 62.99
  A 1.56 1.55 -46.8 0 1 116.67 62.93
  Q 120.40 65.42 124.01 67.93
  C 137.90 77.57 153.43 71.77 160.55 57.52
  C 163.75 51.11 153.20 33.29 149.45 27.90
  C 141.08 15.86 134.94 11.03 119.52 13.70
  Q 96.81 17.63 80.71 33.73
  C 50.40 64.04 42.89 104.41 29.75 143.17
  C 23.24 162.39 15.63 181.83 12.73 201.99
  Q 11.50 210.47 13.44 218.77
  Q 13.84 220.50 18.45 224.27
  Q 29.09 232.99 39.33 242.17
  Z"
/>
<path fill="#ffffff" d="
  M 125.88 248.24
  C 129.76 249.19 140.30 249.13 136.70 256.32
  Q 135.36 258.99 132.41 258.51
  Q 93.50 252.24 66.17 223.33
  Q 62.96 219.94 65.53 216.79
  C 68.11 213.62 71.03 215.78 73.33 218.15
  Q 95.29 240.68 125.88 248.24
  Z"
/>
<path fill="#ffffff" d="
  M 255.31 245.94
  Q 268.03 256.48 284.76 255.32
  Q 288.21 255.08 291.80 254.94
  Q 293.47 254.87 294.28 256.33
  C 296.90 261.04 294.20 263.12 289.78 263.75
  C 272.36 266.24 254.01 260.55 243.68 245.68
  Q 242.25 243.63 243.70 241.59
  C 248.38 234.99 252.37 243.50 255.31 245.94
  Z"
/>
<path fill="#ffffff" d="
  M 175.19 248.96
  A 2.87 2.86 10.5 0 1 176.06 250.22
  C 177.52 254.58 174.51 255.95 170.81 256.77
  Q 159.78 259.22 148.41 259.48
  A 3.18 3.16 66.7 0 1 146.10 258.55
  Q 142.80 255.23 145.95 251.84
  Q 147.04 250.67 148.65 250.62
  Q 160.07 250.25 170.86 247.76
  C 172.93 247.28 173.68 247.71 175.19 248.96
  Z"
/>
</svg>
